<svg xmlns="http://www.w3.org/2000/svg" viewBox="0 0 11 14" enable-background="new 0 0 11 14"><path d="M4.8 9.4c-1.7 0-3.2-.8-4.1-2.2-.6-1-.9-2.3-.6-3.5.3-1.2 1-2.3 2.1-2.9C3 .3 3.9 0 4.8 0 6.5 0 8 .8 8.9 2.2c.7 1.1.9 2.3.6 3.5-.2 1.3-1 2.3-2.1 3-.8.5-1.6.7-2.6.7zm0-8.6c-.7 0-1.5.2-2.1.6C1.8 2 1.2 2.8.9 3.8c-.2 1 0 2.1.5 2.9.7 1.1 2 1.8 3.4 1.8.8.1 1.5-.1 2.2-.5.9-.6 1.5-1.4 1.8-2.4.2-1 0-2.1-.5-2.9C7.5 1.5 6.2.8 4.8.8zM10.6 14c-.1 0-.3-.1-.3-.2L6.9 8.6c-.1-.1-.1-.4.1-.5.2-.1.5-.1.6.1l3.4 5.2c.1.2.1.4-.1.6h-.3z" fill="#5BBC2E"/></svg>